<svg width="170" height="59" viewBox="0 0 170 59" fill="none" xmlns="http://www.w3.org/2000/svg">
<path d="M57.8513 38.1949C59.4926 35.5016 62.9596 30.0497 64.7853 27.1865C64.9115 26.9871 65.0861 26.8229 65.2928 26.7091C65.4995 26.5953 65.7316 26.5356 65.9675 26.5356C66.2035 26.5356 66.4356 26.5953 66.6423 26.7091C66.849 26.8229 67.0235 26.9871 67.1497 27.1865C68.9573 30.0497 72.4424 35.5016 74.0838 38.1949C77.1929 43.2997 77.7822 47.0053 76.806 50.5085C76.0541 53.2416 72.8799 58.6645 65.9675 58.6645C59.0552 58.6645 55.8882 53.2416 55.1218 50.4976C54.1493 46.9944 54.7349 43.2888 57.844 38.1841" fill="#3700FF"/>
<path d="M44.041 54.9776C40.2305 57.5336 34.3015 58.8134 28.7955 58.8134H0V0.000488281H24.139C29.2221 0.000488281 34.7245 0.427088 38.9616 2.12987C43.1986 3.83266 47.5984 8.09865 47.5984 14.9206C47.5984 21.7426 43.195 26.428 39.3846 27.9609C46.1595 29.8372 50.5629 34.9491 50.5629 41.7675C50.5629 48.5859 47.8551 52.4216 44.0555 54.9812L44.041 54.9776ZM27.1035 14.7471C25.831 13.8939 24.985 13.8939 22.8665 13.8939H19.056V22.4187H22.8665C24.985 22.4187 25.831 22.3319 27.1035 21.4787C28.3761 20.6255 28.7955 19.6024 28.7955 18.1563C28.7955 16.6198 28.3725 15.5967 27.1035 14.7471ZM29.6342 36.2253C28.3617 35.3721 27.5157 35.2022 25.3971 35.2022H19.056V44.5657H25.408C27.5265 44.5657 28.3725 44.3126 29.6451 43.4594C30.9176 42.6062 31.337 41.33 31.337 39.8803C31.337 38.3438 30.914 37.0677 29.6451 36.2145" fill="#3700FF"/>
<path d="M70.8843 24.7175H82.9231C85.038 24.7175 86.3937 24.2909 87.1565 23.6944C88.0893 23.0147 89.2751 22.1615 89.2751 19.6055C89.2751 17.0495 88.0025 16.1963 87.1565 15.5998C86.3106 14.9165 85.038 14.4899 82.9231 14.4899H64.9553L55.5556 0H84.4487C91.6503 0 97.1527 1.2798 101.39 4.26238C105.627 7.24496 108.591 12.3605 108.591 18.7523C108.591 30.6826 101.393 34.945 98.8519 36.4671L111.979 58.7985H92.6336L70.8843 24.7175Z" fill="#3700FF"/>
<path d="M170 58.8129H147.134L137.394 39.2074L134.003 43.4698V58.8129H114.947V0H134.003V17.8991L146.284 0H168.731L149.841 23.6944L170 58.8129Z" fill="#3700FF"/>
</svg>
